<svg version="1.1" id="Layer_1" xmlns="http://www.w3.org/2000/svg" x="0" y="0" viewBox="0 0 1400 500" xml:space="preserve"><style>.st0{fill:#de6f71}.st1{fill:#d85456}.st2{fill:#ff7d80}.st3{fill:#f6bec0}.st4{fill:#f29d9f}.st7{fill:#fff}.st9{fill:#f2d5d6}</style><path class="st0" d="M353.86 312.76l74.36-186.78 123.93-80.1-74.36 266.88z"/><path class="st1" d="M552.15 45.86l99.15 266.9H477.79z"/><path class="st2" d="M676.09 99.34L552.15 45.96l99.15 266.91z"/><path class="st2" d="M800.02 312.76H651.3l24.79-213.47 74.36 53.35z"/><path class="st0" d="M703.99 292.13l25.84-205.4 84.64-164.46 7.9 324.97z"/><path class="st1" d="M814.47-77.73L988.11 184.4l-165.74 62.84z"/><path class="st3" d="M948.16-50.08L814.47-77.73 988.11 184.4z"/><path class="st4" d="M1130.17 130.54L988.11 184.4 948.16-50.08l95.92 45.6z"/><g><path fill="#f68f91" d="M386.58 503.65l62.46-305.73 145.75 305.73z"/><path class="st1" d="M324.11 503.65l-20.82-152.72L449.04 198l-62.46 305.65z"/><path class="st0" d="M220.01 503.65l83.28-152.86 20.82 152.86z"/><path class="st2" d="M449.04 198.07l270.67 109.12-20.82 196.46h-104.1z"/></g><path class="st2" d="M971.32 134.8l323.52-165.84-236.28 340.8z"/><path class="st3" d="M1294.84-31.04l-15.8 360.35-220.48-19.55z"/><path class="st0" d="M1409.88 330.88L1294.84-31.04l-15.8 360.35z"/><g><path class="st0" d="M1578.86 315.32l-74.36-186.93-123.94-80.02 74.36 266.95z"/><path class="st1" d="M1380.56 48.42l-99.15 266.9h173.51z"/><path class="st2" d="M1256.63 101.61l123.93-53.38-99.15 266.9zM1132.69 315.32h148.72l-24.78-213.62-74.36 53.43z"/><path class="st0" d="M1228.73 294.39L1202.89 89l-99.01-121.37 6.47 281.88z"/><path class="st1" d="M1103.88-32.37L944.61 186.67l165.74 62.84z"/><path class="st3" d="M972.58-26.27l131.3-6.1-159.27 219.04z"/><path class="st4" d="M802.55 132.8l142.06 53.87 27.97-212.94-83.94 24.06z"/><path class="st3" d="M1546.14 506.21l-62.46-305.72-145.75 305.72z"/><path class="st1" d="M1608.6 506.21l20.83-152.86-145.75-152.86 62.46 305.72z"/><path class="st0" d="M1712.71 506.21l-83.28-152.86-20.83 152.86z"/><path class="st2" d="M1483.68 200.49L1213 309.67l20.82 196.54h104.11z"/><path class="st0" d="M1391.54 391.56L1248.77 53.08v305.73z"/><path class="st1" d="M1248.77 53.08L1070.3 249.62l178.47 109.19z"/><path fill="#f68f92" d="M927.45 249.98L1248.7 53.44l-178.47 196.54z"/><path class="st2" d="M961.4 137.06L637.88-28.78l236.28 340.81z"/><path class="st3" d="M637.88-28.78l15.8 360.36 220.48-19.55z"/><path class="st0" d="M522.83 333.15L637.88-28.78l15.8 360.36z"/><path class="st7" d="M686.52 113.14l-214.16 294.8 124.93-54.59z"/><path class="st7" d="M686.52 113.14l-116 272.97 312.32-10.92z"/><path class="st7" d="M847.14 145.89l-160.62-32.75 178.47 240.21zM1275.47 189.13l-124.93-32.98-71.39 196.32h44.62z"/><path class="st7" d="M1016.69 58.1l133.85 98.05-71.39 196.32h-53.54zM1016.69 58.1l-169.55 87.14 17.85 207.23h17.85z"/><path class="st7" d="M1043.46 352.47H882.84l133.85-294.8z"/><path class="st1" d="M686.52 113.14l-214.16 294.8 124.93-54.59z"/><path fill="#ffbfc1" d="M686.52 113.14l-116 272.97 312.32-10.92z"/><path class="st9" d="M847.14 145.89l-160.62-32.75 178.47 240.21z"/><path class="st1" d="M1293.31 375.19l-17.84-185.62-151.7 163.78z"/><path fill="#f6acaf" d="M1275.47 189.13l-124.93-32.98-71.39 196.32h44.62z"/><path fill="#f09395" d="M1016.69 58.1l133.85 98.05-71.39 196.32h-53.54z"/><path fill="#ffd9d9" d="M1016.69 58.1l-169.55 87.14 17.85 207.23h17.85z"/><path fill="#ffeded" d="M1043.46 352.47H882.84l133.85-294.8z"/><path class="st0" d="M1462.86 506.21l-53.54-141.94-53.54 141.94z"/><path class="st1" d="M1285.92 326.05l124.16 38.22-54.3 141.94h-69.86z"/><path class="st3" d="M570.52 222.32l160.62 283.89H588.37z"/><path class="st3" d="M445.59 397.02l124.93-174.7 17.85 283.89h-89.24zM891.76 353.35L570.52 222.32l160.62 283.89h124.93z"/><path class="st3" d="M570.52 222.32l160.62 283.89H588.37z"/><path class="st4" d="M445.59 397.02l124.93-174.7 17.85 283.89h-89.24z"/><path class="st2" d="M338.51 506.21h160.62l-53.54-109.19z"/><path fill="#ff9c9e" d="M891.76 353.35L570.52 222.32l160.62 283.89h124.93z"/><path class="st9" d="M1123.77 200.49L891.76 353.35l-35.69 152.86h107.08z"/><path class="st2" d="M1257.62 506.21l-133.85-305.72-160.62 305.72z"/><path fill="#ff9a9c" d="M1285.92 326.05l-161.39-125.56 133.09 305.72h28.3z"/></g></svg>