<?xml version="1.0" encoding="utf-8"?>
<!-- Generator: Adobe Illustrator 23.0.1, SVG Export Plug-In . SVG Version: 6.00 Build 0)  -->
<svg version="1.1" id="Layer_1" xmlns="http://www.w3.org/2000/svg" xmlns:xlink="http://www.w3.org/1999/xlink" x="0px" y="0px"
	 viewBox="0 0 1400 500" style="enable-background:new 0 0 1400 500;" xml:space="preserve">
<style type="text/css">
	.st0{fill:#DE6F71;}
	.st1{fill:#D85456;}
	.st2{fill:#FF7D80;}
	.st3{fill:#F6BEC0;}
	.st4{fill:#F29D9F;}
	.st5{fill:#F68F92;}
	.st6{fill:#FFFFFF;}
	.st7{fill:#FFBFC1;}
	.st8{fill:#F2D5D6;}
	.st9{fill:#F6ACAF;}
	.st10{fill:#F09395;}
	.st11{fill:#FFD9D9;}
	.st12{fill:#FFEDED;}
	.st13{fill:#FF9C9E;}
	.st14{fill:#FF9A9C;}
</style>
<g>
	<g>
		<g>
			<polygon class="st0" points="353.86,312.76 428.22,125.98 552.15,45.88 477.79,312.76 			"/>
			<polygon class="st1" points="552.15,45.86 651.3,312.76 477.79,312.76 			"/>
			<polygon class="st2" points="676.09,99.34 552.15,45.96 651.3,312.87 			"/>
			<polygon class="st2" points="800.02,312.76 651.3,312.76 676.09,99.29 750.45,152.64 			"/>
		</g>
		<g>
			<polygon class="st0" points="703.99,292.13 729.83,86.73 814.47,-77.73 822.37,247.24 			"/>
			<polygon class="st1" points="814.47,-77.73 988.11,184.4 822.37,247.24 			"/>
			<polygon class="st3" points="948.16,-50.08 814.47,-77.73 988.11,184.4 			"/>
			<polygon class="st4" points="1130.17,130.54 988.11,184.4 948.16,-50.08 1044.08,-4.48 			"/>
		</g>
		<g>
			<polygon class="st3" points="386.58,503.65 449.04,197.92 594.79,503.65 			"/>
			<polygon class="st1" points="324.11,503.65 303.29,350.93 449.04,198 386.58,503.65 			"/>
			<polygon class="st0" points="220.01,503.65 303.29,350.79 324.11,503.65 			"/>
			<polygon class="st2" points="449.04,198.07 719.71,307.19 698.89,503.65 594.79,503.65 			"/>
		</g>
		<polygon class="st2" points="971.32,134.8 1294.84,-31.04 1058.56,309.76 		"/>
		<polygon class="st3" points="1294.84,-31.04 1279.04,329.31 1058.56,309.76 		"/>
		<polygon class="st0" points="1409.88,330.88 1294.84,-31.04 1279.04,329.31 		"/>
	</g>
	<g>
		<g>
			<polygon class="st0" points="1578.86,315.32 1504.5,128.39 1380.56,48.37 1454.92,315.32 			"/>
			<polygon class="st1" points="1380.56,48.42 1281.41,315.32 1454.92,315.32 			"/>
			<polygon class="st2" points="1256.63,101.61 1380.56,48.23 1281.41,315.13 			"/>
			<polygon class="st2" points="1132.69,315.32 1281.41,315.32 1256.63,101.7 1182.27,155.13 			"/>
		</g>
		<g>
			<polygon class="st0" points="1228.73,294.39 1202.89,89 1103.88,-32.37 1110.35,249.51 			"/>
			<polygon class="st1" points="1103.88,-32.37 944.61,186.67 1110.35,249.51 			"/>
			<polygon class="st3" points="972.58,-26.27 1103.88,-32.37 944.61,186.67 			"/>
			<polygon class="st4" points="802.55,132.8 944.61,186.67 972.58,-26.27 888.64,-2.21 			"/>
		</g>
		<g>
			<polygon class="st3" points="1546.14,506.21 1483.68,200.49 1337.93,506.21 			"/>
			<polygon class="st1" points="1608.6,506.21 1629.43,353.35 1483.68,200.49 1546.14,506.21 			"/>
			<polygon class="st0" points="1712.71,506.21 1629.43,353.35 1608.6,506.21 			"/>
			<polygon class="st2" points="1483.68,200.49 1213,309.67 1233.82,506.21 1337.93,506.21 			"/>
		</g>
		<polygon class="st0" points="1391.54,391.56 1248.77,53.08 1248.77,358.81 		"/>
		<polygon class="st1" points="1248.77,53.08 1070.3,249.62 1248.77,358.81 		"/>
		<polygon class="st5" points="927.45,249.98 1248.7,53.44 1070.23,249.98 		"/>
		<polygon class="st2" points="961.4,137.06 637.88,-28.78 874.16,312.03 		"/>
		<polygon class="st3" points="637.88,-28.78 653.68,331.58 874.16,312.03 		"/>
		<polygon class="st0" points="522.83,333.15 637.88,-28.78 653.68,331.58 		"/>
		<polygon class="st6" points="686.52,113.14 472.36,407.94 597.29,353.35 		"/>
		<polygon class="st6" points="686.52,113.14 570.52,386.11 882.84,375.19 		"/>
		<polygon class="st6" points="847.14,145.89 686.52,113.14 864.99,353.35 		"/>
		<polygon class="st6" points="1275.47,189.13 1150.54,156.15 1079.15,352.47 1123.77,352.47 		"/>
		<polygon class="st6" points="1016.69,58.1 1150.54,156.15 1079.15,352.47 1025.61,352.47 		"/>
		<polygon class="st6" points="1016.69,58.1 847.14,145.24 864.99,352.47 882.84,352.47 		"/>
		<polygon class="st6" points="1043.46,352.47 882.84,352.47 1016.69,57.67 		"/>
		<polygon class="st1" points="686.52,113.14 472.36,407.94 597.29,353.35 		"/>
		<polygon class="st7" points="686.52,113.14 570.52,386.11 882.84,375.19 		"/>
		<polygon class="st8" points="847.14,145.89 686.52,113.14 864.99,353.35 		"/>
		<polygon class="st1" points="1293.31,375.19 1275.47,189.57 1123.77,353.35 		"/>
		<polygon class="st9" points="1275.47,189.13 1150.54,156.15 1079.15,352.47 1123.77,352.47 		"/>
		<polygon class="st10" points="1016.69,58.1 1150.54,156.15 1079.15,352.47 1025.61,352.47 		"/>
		<polygon class="st11" points="1016.69,58.1 847.14,145.24 864.99,352.47 882.84,352.47 		"/>
		<polygon class="st12" points="1043.46,352.47 882.84,352.47 1016.69,57.67 		"/>
		<polygon class="st0" points="1462.86,506.21 1409.32,364.27 1355.78,506.21 		"/>
		<polygon class="st1" points="1285.92,326.05 1410.08,364.27 1355.78,506.21 1285.92,506.21 		"/>
		<polygon class="st3" points="570.52,222.32 731.14,506.21 588.37,506.21 		"/>
		<polygon class="st4" points="445.59,397.02 570.52,222.32 588.37,506.21 499.13,506.21 		"/>
		<polygon class="st2" points="338.51,506.21 499.13,506.21 445.59,397.02 		"/>
		<polygon class="st13" points="891.76,353.35 570.52,222.32 731.14,506.21 856.07,506.21 		"/>
		<polygon class="st8" points="1123.77,200.49 891.76,353.35 856.07,506.21 963.15,506.21 		"/>
		<polygon class="st2" points="1257.62,506.21 1123.77,200.49 963.15,506.21 		"/>
		<polygon class="st14" points="1285.92,326.05 1124.53,200.49 1257.62,506.21 1285.92,506.21 		"/>
	</g>
</g>
</svg>
