<svg xmlns="http://www.w3.org/2000/svg" viewBox="0 0 250 250"><linearGradient id="a" gradientUnits="userSpaceOnUse" x1="175" y1="500.128" x2="175" y2="747.081" gradientTransform="translate(-50 -501)"><stop offset="0" stop-color="#1d2b4d"/><stop offset="1" stop-color="#0d1424"/></linearGradient><linearGradient id="b" gradientUnits="userSpaceOnUse" x1="174.997" y1="500.128" x2="174.997" y2="747.081" gradientTransform="translate(-50 -501)"><stop offset="0" stop-color="#1d2b4d"/><stop offset="1" stop-color="#0d1424"/></linearGradient><path fill="url(#a)" stroke="url(#b)" d="M124.9 210.8l-35.8-17.5v-.1L51 211.8l73.9 36.1 74.1-36-38.2-18.9z"/><radialGradient id="c" cx="63.304" cy="16.387" r="219.798" gradientTransform="matrix(1 0 0 -1 0 252)" gradientUnits="userSpaceOnUse"><stop offset="0" stop-color="#ff7d80"/><stop offset="1" stop-color="#d85456"/></radialGradient><radialGradient id="d" cx="63.304" cy="16.387" r="219.798" gradientTransform="matrix(1 0 0 -1 0 252)" gradientUnits="userSpaceOnUse"><stop offset="0" stop-color="#ff7d80"/><stop offset="1" stop-color="#d85456"/></radialGradient><path fill="url(#c)" stroke="url(#d)" d="M51.1 211.9v-37.1l36.6-17.9 37.8 18.6z"/><radialGradient id="e" cx="186.827" cy="488.219" r="265.557" gradientTransform="translate(-50 -501)" gradientUnits="userSpaceOnUse"><stop offset="0" stop-color="#ff7d80"/><stop offset="1" stop-color="#d85456"/></radialGradient><radialGradient id="f" cx="186.827" cy="488.219" r="265.557" gradientTransform="translate(-50 -501)" gradientUnits="userSpaceOnUse"><stop offset="0" stop-color="#ff7d80"/><stop offset="1" stop-color="#d85456"/></radialGradient><path fill="url(#e)" stroke="url(#f)" d="M165.6 59v58.8l-41 19.9 37.7 18.8 36.7-17.9V38.1z"/><radialGradient id="g" cx="118.056" cy="468.762" r="507.591" gradientTransform="translate(-50 -501)" gradientUnits="userSpaceOnUse"><stop offset="0" stop-color="#293d6e"/><stop offset="1" stop-color="#1d2b4d"/></radialGradient><radialGradient id="h" cx="118.056" cy="468.762" r="507.591" gradientTransform="translate(-50 -501)" gradientUnits="userSpaceOnUse"><stop offset="0" stop-color="#293d6e"/><stop offset="1" stop-color="#1d2b4d"/></radialGradient><path fill="url(#g)" stroke="url(#h)" d="M199 211.9v-37.2l-114.5-57V59L51.1 38.1v100.5z"/><linearGradient id="i" gradientUnits="userSpaceOnUse" x1="174.922" y1="501.386" x2="174.922" y2="747.09" gradientTransform="translate(-50 -501)"><stop offset="0" stop-color="#1d2b4d"/><stop offset="1" stop-color="#0d1424"/></linearGradient><linearGradient id="j" gradientUnits="userSpaceOnUse" x1="175.187" y1="501.386" x2="175.187" y2="747.09" gradientTransform="translate(-50 -501)"><stop offset="0" stop-color="#1d2b4d"/><stop offset="1" stop-color="#0d1424"/></linearGradient><path fill="url(#i)" stroke="url(#j)" d="M84.4 58.9l40.5-19.8 40.6 19.8L198.8 38 124.9 2 51 38v.1l33.4 20.8z"/></svg>