<svg xmlns="http://www.w3.org/2000/svg" width="680" height="586" viewBox="0 0 680 586"><title>topdoc-mascot</title><g id="Layer_2_Image" data-name="Layer 2 Image"><polygon points="340 103.46 643.12 153.37 680 196.9 680 379.73 478.82 549.84 340 549.84 340 103.46" fill="#b54648"/><polygon points="340 103.46 36.88 153.37 0 196.9 0 379.73 201.18 549.84 340 549.84 340 103.46" fill="#f29d9f"/><polygon points="340 0 177.5 37.95 340 124.73 502.5 37.95 340 0" fill="#304882"/><polygon points="205.21 31.48 139.49 31.48 67.73 4.69 0 37.5 0 103.81 89.32 223.82 62.02 328.48 205.21 482.52 245.44 482.52 245.44 336.52 340 242.09 340 103.46 205.21 31.48" fill="#213158"/><polygon points="680 37.5 612.27 4.69 540.51 31.48 474.79 31.48 340 0 205.21 31.48 139.49 31.48 67.73 4.69 0 37.5 0 103.81 36.88 153.37 0 196.9 0 379.73 201.18 549.84 245.44 549.84 273.61 586 340 586 406.39 586 434.56 549.84 478.82 549.84 680 379.73 680 196.9 643.12 153.37 680 103.81 680 37.5" fill="none"/><polygon points="205.21 31.48 139.49 31.48 67.73 4.69 0 37.5 0 103.81 89.32 223.82 62.02 328.48 205.21 482.52 340 482.52 340 103.46 205.21 31.48" fill="#273a68"/><polygon points="245.44 336.52 245.44 549.84 273.61 586 340 586 340 549.84 340 242.09 245.44 336.52" fill="#ff7d80"/><ellipse cx="259.94" cy="262.26" rx="19.02" ry="19" fill="#fff"/><polygon points="680 37.5 612.27 4.69 540.51 31.48 474.79 31.48 340 103.46 340 482.52 474.79 482.52 617.98 328.48 590.68 223.82 680 103.81 680 37.5" fill="#1d2b4d"/><polygon points="340 242.09 340 549.84 340 586 406.39 586 434.56 549.84 434.56 336.52 340 242.09" fill="#d85456"/><polygon points="340 514.66 340 449.7 383.27 449.7 408.08 474.48 340 514.66" fill="#213158"/><polygon points="340 514.66 340 449.7 296.73 449.7 271.92 474.48 340 514.66" fill="#273a68"/><polygon points="95.93 83.22 49.24 47.71 21.07 65.46 21.07 92.42 53.72 133.37 95.93 83.22" fill="#1d2b4d"/><polygon points="680 37.5 612.27 4.69 540.51 31.48 474.79 31.48 340 103.46 340 242.09 434.56 336.52 434.56 482.52 474.79 482.52 617.98 328.48 590.68 223.82 680 103.81 680 37.5" fill="#213158"/><ellipse cx="420.06" cy="262.26" rx="19.02" ry="19" fill="#fff"/><polygon points="584.07 83.22 630.76 47.71 658.93 65.46 658.93 92.42 626.28 133.37 584.07 83.22" fill="#293d6e"/><polygon points="584.07 83.22 630.76 47.71 658.93 65.46 658.93 92.42 626.28 133.37 584.07 83.22" fill="#152038"/><polygon points="95.93 83.22 49.24 47.71 21.07 65.46 21.07 92.42 53.72 133.37 95.93 83.22" fill="#1d2b4d"/><polygon points="340 549.84 295.73 573.95 273.61 586 340 586 340 549.84" fill="#d85456"/><polygon points="406.39 586 340 549.84 340 586 406.39 586" fill="#b54648"/></g></svg>